<svg xmlns="http://www.w3.org/2000/svg" width="1159" height="736" viewBox="0 0 1159 736">
<rect width="100%" height="100%" fill="#ffffff"/>
<text x="50.0" y="42.0" font-family="Helvetica, Arial, sans-serif" font-size="17" text-anchor="start" fill="#1e2933" font-weight="bold">Building plan</text>
<text x="50.0" y="62.0" font-family="Helvetica, Arial, sans-serif" font-size="11" text-anchor="start" fill="#6b7785" font-weight="normal">Electrical rooms on the north side of each hall, support spaces and a secure corridor to the south.</text>
<rect x="50.0" y="110.0" width="809.2" height="486.2" rx="0" fill="none" stroke="#1e2933" stroke-width="2.6"/>
<rect x="50.0" y="110.0" width="187.0" height="367.2" rx="0" fill="#f6f7f9" stroke="#1e2933" stroke-width="1.2"/>
<text x="143.5" y="178.0" font-family="Helvetica, Arial, sans-serif" font-size="11" text-anchor="middle" fill="#1e2933" font-weight="bold">Loading dock</text>
<text x="143.5" y="198.4" font-family="Helvetica, Arial, sans-serif" font-size="9" text-anchor="middle" fill="#6b7785" font-weight="normal">2 truck positions</text>
<line x1="50.0" y1="263.0" x2="237.0" y2="263.0" stroke="#1e2933" stroke-width="1.0"/>
<text x="143.5" y="314.0" font-family="Helvetica, Arial, sans-serif" font-size="11" text-anchor="middle" fill="#1e2933" font-weight="bold">Staging and</text>
<text x="143.5" y="334.4" font-family="Helvetica, Arial, sans-serif" font-size="11" text-anchor="middle" fill="#1e2933" font-weight="bold">burn-in</text>
<text x="143.5" y="356.5" font-family="Helvetica, Arial, sans-serif" font-size="9" text-anchor="middle" fill="#6b7785" font-weight="normal">rack receiving, power-on</text>
<text x="143.5" y="375.2" font-family="Helvetica, Arial, sans-serif" font-size="9" text-anchor="middle" fill="#6b7785" font-weight="normal">and acceptance tests</text>
<rect x="75.5" y="99.8" width="61.2" height="10.2" rx="0" fill="#1e2933" stroke="#1e2933" stroke-width="1.0"/>
<rect x="150.3" y="99.8" width="61.2" height="10.2" rx="0" fill="#1e2933" stroke="#1e2933" stroke-width="1.0"/>
<rect x="237.0" y="110.0" width="244.0" height="153.0" rx="0" fill="#fdf6ec" stroke="#1e2933" stroke-width="1.2"/>
<line x1="388.2" y1="110.0" x2="388.2" y2="263.0" stroke="#1e2933" stroke-width="0.8"/>
<text x="312.6" y="164.4" font-family="Helvetica, Arial, sans-serif" font-size="10" text-anchor="middle" fill="#1e2933" font-weight="bold">Hall A electrical</text>
<text x="312.6" y="184.8" font-family="Helvetica, Arial, sans-serif" font-size="8.5" text-anchor="middle" fill="#6b7785" font-weight="normal">UPS-A1..A4, MUPS-A1/A2</text>
<text x="312.6" y="203.5" font-family="Helvetica, Arial, sans-serif" font-size="8.5" text-anchor="middle" fill="#6b7785" font-weight="normal">CRAH-A1..A3</text>
<text x="434.6" y="184.8" font-family="Helvetica, Arial, sans-serif" font-size="9" text-anchor="middle" fill="#6b7785" font-weight="normal">Li-ion</text>
<text x="434.6" y="203.5" font-family="Helvetica, Arial, sans-serif" font-size="9" text-anchor="middle" fill="#6b7785" font-weight="normal">battery</text>
<rect x="237.0" y="263.0" width="244.0" height="214.2" rx="0" fill="#ffffff" stroke="#1e2933" stroke-width="2.0"/>
<rect x="311.8" y="293.6" width="81.6" height="20.4" rx="0" fill="#d5dbe2" stroke="#1e2933" stroke-width="0.7"/>
<rect x="393.4" y="293.6" width="12.8" height="20.4" rx="0" fill="#e3efe8" stroke="#2f8f5b" stroke-width="1.0"/>
<rect x="311.8" y="334.4" width="81.6" height="20.4" rx="0" fill="#d5dbe2" stroke="#1e2933" stroke-width="0.7"/>
<rect x="393.4" y="334.4" width="12.8" height="20.4" rx="0" fill="#e3efe8" stroke="#2f8f5b" stroke-width="1.0"/>
<rect x="311.8" y="385.4" width="81.6" height="20.4" rx="0" fill="#d5dbe2" stroke="#1e2933" stroke-width="0.7"/>
<rect x="393.4" y="385.4" width="12.8" height="20.4" rx="0" fill="#e3efe8" stroke="#2f8f5b" stroke-width="1.0"/>
<rect x="311.8" y="426.2" width="81.6" height="20.4" rx="0" fill="#d5dbe2" stroke="#1e2933" stroke-width="0.7"/>
<rect x="393.4" y="426.2" width="12.8" height="20.4" rx="0" fill="#e3efe8" stroke="#2f8f5b" stroke-width="1.0"/>
<rect x="237.0" y="263.0" width="40.8" height="214.2" rx="0" fill="#dfe9f3" stroke="#c9d0d8" stroke-width="0.6"/>
<rect x="440.2" y="263.0" width="40.8" height="214.2" rx="0" fill="#dfe9f3" stroke="#c9d0d8" stroke-width="0.6"/>
<text x="359.0" y="468.2" font-family="Helvetica, Arial, sans-serif" font-size="10.5" text-anchor="middle" fill="#1e2933" font-weight="bold">Hall A (production)</text>
<rect x="481.0" y="110.0" width="244.0" height="153.0" rx="0" fill="#fdf6ec" stroke="#1e2933" stroke-width="1.2"/>
<line x1="632.2" y1="110.0" x2="632.2" y2="263.0" stroke="#1e2933" stroke-width="0.8"/>
<text x="556.6" y="164.4" font-family="Helvetica, Arial, sans-serif" font-size="10" text-anchor="middle" fill="#1e2933" font-weight="bold">Hall B electrical</text>
<text x="556.6" y="184.8" font-family="Helvetica, Arial, sans-serif" font-size="8.5" text-anchor="middle" fill="#6b7785" font-weight="normal">UPS-B1..B4, MUPS-B1/B2</text>
<text x="556.6" y="203.5" font-family="Helvetica, Arial, sans-serif" font-size="8.5" text-anchor="middle" fill="#6b7785" font-weight="normal">CRAH-B1..B3</text>
<text x="678.5" y="184.8" font-family="Helvetica, Arial, sans-serif" font-size="9" text-anchor="middle" fill="#6b7785" font-weight="normal">Li-ion</text>
<text x="678.5" y="203.5" font-family="Helvetica, Arial, sans-serif" font-size="9" text-anchor="middle" fill="#6b7785" font-weight="normal">battery</text>
<rect x="481.0" y="263.0" width="244.0" height="214.2" rx="0" fill="#ffffff" stroke="#1e2933" stroke-width="2.0"/>
<rect x="555.8" y="293.6" width="81.6" height="20.4" rx="0" fill="#d5dbe2" stroke="#1e2933" stroke-width="0.7"/>
<rect x="637.3" y="293.6" width="12.8" height="20.4" rx="0" fill="#e3efe8" stroke="#2f8f5b" stroke-width="1.0"/>
<rect x="555.8" y="334.4" width="81.6" height="20.4" rx="0" fill="#d5dbe2" stroke="#1e2933" stroke-width="0.7"/>
<rect x="637.3" y="334.4" width="12.8" height="20.4" rx="0" fill="#e3efe8" stroke="#2f8f5b" stroke-width="1.0"/>
<rect x="555.8" y="385.4" width="81.6" height="20.4" rx="0" fill="#d5dbe2" stroke="#1e2933" stroke-width="0.7"/>
<rect x="637.3" y="385.4" width="12.8" height="20.4" rx="0" fill="#e3efe8" stroke="#2f8f5b" stroke-width="1.0"/>
<rect x="555.8" y="426.2" width="81.6" height="20.4" rx="0" fill="#d5dbe2" stroke="#1e2933" stroke-width="0.7"/>
<rect x="637.3" y="426.2" width="12.8" height="20.4" rx="0" fill="#e3efe8" stroke="#2f8f5b" stroke-width="1.0"/>
<rect x="481.0" y="263.0" width="40.8" height="214.2" rx="0" fill="#dfe9f3" stroke="#c9d0d8" stroke-width="0.6"/>
<rect x="684.1" y="263.0" width="40.8" height="214.2" rx="0" fill="#dfe9f3" stroke="#c9d0d8" stroke-width="0.6"/>
<text x="602.9" y="468.2" font-family="Helvetica, Arial, sans-serif" font-size="10.5" text-anchor="middle" fill="#1e2933" font-weight="bold">Hall B (deployment)</text>
<rect x="724.9" y="110.0" width="134.3" height="153.0" rx="0" fill="#fdf6ec" stroke="#1e2933" stroke-width="1.2"/>
<text x="792.1" y="164.4" font-family="Helvetica, Arial, sans-serif" font-size="10" text-anchor="middle" fill="#1e2933" font-weight="bold">Hall C electrical</text>
<text x="792.1" y="184.8" font-family="Helvetica, Arial, sans-serif" font-size="8.5" text-anchor="middle" fill="#6b7785" font-weight="normal">800 VDC</text>
<text x="792.1" y="203.5" font-family="Helvetica, Arial, sans-serif" font-size="8.5" text-anchor="middle" fill="#6b7785" font-weight="normal">distribution</text>
<rect x="724.9" y="263.0" width="134.3" height="214.2" rx="0" fill="#ffffff" stroke="#1e2933" stroke-width="2.0"/>
<rect x="771.7" y="293.6" width="40.8" height="20.4" rx="0" fill="#d5dbe2" stroke="#1e2933" stroke-width="0.7"/>
<rect x="812.5" y="293.6" width="12.8" height="20.4" rx="0" fill="#e3efe8" stroke="#2f8f5b" stroke-width="1.0"/>
<rect x="758.9" y="293.6" width="12.8" height="20.4" rx="0" fill="#e3efe8" stroke="#2f8f5b" stroke-width="1.0"/>
<rect x="771.7" y="334.4" width="40.8" height="20.4" rx="0" fill="#d5dbe2" stroke="#1e2933" stroke-width="0.7"/>
<rect x="812.5" y="334.4" width="12.8" height="20.4" rx="0" fill="#e3efe8" stroke="#2f8f5b" stroke-width="1.0"/>
<text x="792.1" y="468.2" font-family="Helvetica, Arial, sans-serif" font-size="10.5" text-anchor="middle" fill="#1e2933" font-weight="bold">Hall C (planned)</text>
<rect x="50.0" y="477.2" width="809.2" height="40.8" rx="0" fill="#f3f5f7" stroke="#1e2933" stroke-width="1.0"/>
<text x="454.6" y="502.7" font-family="Helvetica, Arial, sans-serif" font-size="9.5" text-anchor="middle" fill="#6b7785" font-weight="normal">Secure corridor (badge and camera coverage)</text>
<rect x="50.0" y="518.0" width="119.0" height="78.2" rx="0" fill="#ffffff" stroke="#1e2933" stroke-width="1.0"/>
<text x="109.5" y="552.0" font-family="Helvetica, Arial, sans-serif" font-size="10" text-anchor="middle" fill="#1e2933" font-weight="bold">Security lobby</text>
<text x="109.5" y="570.7" font-family="Helvetica, Arial, sans-serif" font-size="8.5" text-anchor="middle" fill="#6b7785" font-weight="normal">mantrap, guard desk</text>
<rect x="169.0" y="518.0" width="85.0" height="78.2" rx="0" fill="#ffffff" stroke="#1e2933" stroke-width="1.0"/>
<text x="211.5" y="552.0" font-family="Helvetica, Arial, sans-serif" font-size="10" text-anchor="middle" fill="#1e2933" font-weight="bold">MMR-1</text>
<text x="211.5" y="570.7" font-family="Helvetica, Arial, sans-serif" font-size="8.5" text-anchor="middle" fill="#6b7785" font-weight="normal">meet-me room, west</text>
<rect x="254.0" y="518.0" width="119.0" height="78.2" rx="0" fill="#ffffff" stroke="#1e2933" stroke-width="1.0"/>
<text x="313.5" y="552.0" font-family="Helvetica, Arial, sans-serif" font-size="10" text-anchor="middle" fill="#1e2933" font-weight="bold">NOC</text>
<text x="313.5" y="570.7" font-family="Helvetica, Arial, sans-serif" font-size="8.5" text-anchor="middle" fill="#6b7785" font-weight="normal">site ops and IC desk</text>
<rect x="373.0" y="518.0" width="102.0" height="78.2" rx="0" fill="#ffffff" stroke="#1e2933" stroke-width="1.0"/>
<text x="424.0" y="552.0" font-family="Helvetica, Arial, sans-serif" font-size="10" text-anchor="middle" fill="#1e2933" font-weight="bold">Spares cage</text>
<text x="424.0" y="570.7" font-family="Helvetica, Arial, sans-serif" font-size="8.5" text-anchor="middle" fill="#6b7785" font-weight="normal">trays, PSUs, optics</text>
<rect x="475.0" y="518.0" width="68.0" height="78.2" rx="0" fill="#ffffff" stroke="#1e2933" stroke-width="1.0"/>
<text x="509.0" y="552.0" font-family="Helvetica, Arial, sans-serif" font-size="10" text-anchor="middle" fill="#1e2933" font-weight="bold">Fire riser</text>
<text x="509.0" y="570.7" font-family="Helvetica, Arial, sans-serif" font-size="8.5" text-anchor="middle" fill="#6b7785" font-weight="normal">FACP</text>
<rect x="543.0" y="518.0" width="102.0" height="78.2" rx="0" fill="#ffffff" stroke="#1e2933" stroke-width="1.0"/>
<text x="594.0" y="552.0" font-family="Helvetica, Arial, sans-serif" font-size="10" text-anchor="middle" fill="#1e2933" font-weight="bold">Pump room</text>
<text x="594.0" y="570.7" font-family="Helvetica, Arial, sans-serif" font-size="8.5" text-anchor="middle" fill="#6b7785" font-weight="normal">FWP-1..3</text>
<rect x="645.0" y="518.0" width="85.0" height="78.2" rx="0" fill="#ffffff" stroke="#1e2933" stroke-width="1.0"/>
<text x="687.5" y="552.0" font-family="Helvetica, Arial, sans-serif" font-size="10" text-anchor="middle" fill="#1e2933" font-weight="bold">Telecom</text>
<text x="687.5" y="570.7" font-family="Helvetica, Arial, sans-serif" font-size="8.5" text-anchor="middle" fill="#6b7785" font-weight="normal">OOB network</text>
<rect x="730.0" y="518.0" width="129.2" height="78.2" rx="0" fill="#ffffff" stroke="#1e2933" stroke-width="1.0"/>
<text x="794.6" y="552.0" font-family="Helvetica, Arial, sans-serif" font-size="10" text-anchor="middle" fill="#1e2933" font-weight="bold">MMR-2</text>
<text x="794.6" y="570.7" font-family="Helvetica, Arial, sans-serif" font-size="8.5" text-anchor="middle" fill="#6b7785" font-weight="normal">meet-me room, east</text>
<line x1="919.2" y1="152.0" x2="919.2" y2="112.0" stroke="#1e2933" stroke-width="1.6"/>
<polyline points="913.2,122.0 919.2,110.0 925.2,122.0" fill="none" stroke="#1e2933" stroke-width="1.6"/>
<text x="919.2" y="168.0" font-family="Helvetica, Arial, sans-serif" font-size="12" text-anchor="middle" fill="#1e2933" font-weight="bold">N</text>
<rect x="50.0" y="620.2" width="85.0" height="6.0" rx="0" fill="#1e2933" stroke="#1e2933" stroke-width="0.8"/>
<rect x="135.0" y="620.2" width="85.0" height="6.0" rx="0" fill="#ffffff" stroke="#1e2933" stroke-width="0.8"/>
<rect x="220.0" y="620.2" width="85.0" height="6.0" rx="0" fill="#1e2933" stroke="#1e2933" stroke-width="0.8"/>
<rect x="305.0" y="620.2" width="85.0" height="6.0" rx="0" fill="#ffffff" stroke="#1e2933" stroke-width="0.8"/>
<text x="50.0" y="640.2" font-family="Helvetica, Arial, sans-serif" font-size="9" text-anchor="start" fill="#1e2933" font-weight="normal">0</text>
<text x="390.0" y="640.2" font-family="Helvetica, Arial, sans-serif" font-size="9" text-anchor="middle" fill="#1e2933" font-weight="normal">20 m</text>
<text x="887.2" y="190.0" font-family="Helvetica, Arial, sans-serif" font-size="11" text-anchor="start" fill="#1e2933" font-weight="bold">Legend</text>
<rect x="887.2" y="197.0" width="18.0" height="11.0" rx="0" fill="#d5dbe2" stroke="#1e2933" stroke-width="0.6"/>
<text x="913.2" y="206.0" font-family="Helvetica, Arial, sans-serif" font-size="10" text-anchor="start" fill="#1e2933" font-weight="normal">Compute racks</text>
<rect x="887.2" y="214.0" width="18.0" height="11.0" rx="0" fill="#e3efe8" stroke="#1e2933" stroke-width="0.6"/>
<text x="913.2" y="223.0" font-family="Helvetica, Arial, sans-serif" font-size="10" text-anchor="start" fill="#1e2933" font-weight="normal">CDUs</text>
<rect x="887.2" y="231.0" width="18.0" height="11.0" rx="0" fill="#dfe9f3" stroke="#1e2933" stroke-width="0.6"/>
<text x="913.2" y="240.0" font-family="Helvetica, Arial, sans-serif" font-size="10" text-anchor="start" fill="#1e2933" font-weight="normal">Thermal-wall gallery</text>
<rect x="887.2" y="248.0" width="18.0" height="11.0" rx="0" fill="#fdf6ec" stroke="#1e2933" stroke-width="0.6"/>
<text x="913.2" y="257.0" font-family="Helvetica, Arial, sans-serif" font-size="10" text-anchor="start" fill="#1e2933" font-weight="normal">Electrical rooms</text>
<rect x="8.0" y="8.0" width="1143.2" height="720.2" rx="0" fill="none" stroke="#1e2933" stroke-width="1.4"/>
<line x1="8.0" y1="684.2" x2="1151.2" y2="684.2" stroke="#1e2933" stroke-width="1.4"/>
<text x="20.0" y="703.2" font-family="Helvetica, Arial, sans-serif" font-size="15" text-anchor="start" fill="#1e2933" font-weight="bold">Building plan</text>
<text x="20.0" y="721.2" font-family="Helvetica, Arial, sans-serif" font-size="10" text-anchor="start" fill="#6b7785" font-weight="normal">Site AUS-1 (fictional)  |  Unified Site Management  |  Scale: as shown  |  Schematic, not for construction</text>
<line x1="1039.2" y1="684.2" x2="1039.2" y2="728.2" stroke="#1e2933" stroke-width="1.0"/>
<text x="1095.2" y="705.2" font-family="Helvetica, Arial, sans-serif" font-size="9" text-anchor="middle" fill="#6b7785" font-weight="normal">Sheet</text>
<text x="1095.2" y="724.2" font-family="Helvetica, Arial, sans-serif" font-size="17" text-anchor="middle" fill="#1e2933" font-weight="bold">A-101</text>
</svg>
